<?xml version="1.0" encoding="UTF-8" standalone="no"?>
<!-- Created with Inkscape (http://www.inkscape.org/) -->

<svg
   width="11in"
   height="8.5in"
   viewBox="0 0 279.4 215.9"
   version="1.1"
   id="svg5"
   inkscape:version="1.1.2 (0a00cf5339, 2022-02-04)"
   sodipodi:docname="tat-main-event-messages.svg"
   xmlns:inkscape="http://www.inkscape.org/namespaces/inkscape"
   xmlns:sodipodi="http://sodipodi.sourceforge.net/DTD/sodipodi-0.dtd"
   xmlns="http://www.w3.org/2000/svg"
   xmlns:svg="http://www.w3.org/2000/svg">
  <sodipodi:namedview
     id="namedview7"
     pagecolor="#ffffff"
     bordercolor="#666666"
     borderopacity="1.0"
     inkscape:pageshadow="2"
     inkscape:pageopacity="0.0"
     inkscape:pagecheckerboard="0"
     inkscape:document-units="mm"
     showgrid="false"
     inkscape:zoom="2"
     inkscape:cx="467.75"
     inkscape:cy="455.25"
     inkscape:window-width="3840"
     inkscape:window-height="2079"
     inkscape:window-x="0"
     inkscape:window-y="0"
     inkscape:window-maximized="1"
     inkscape:current-layer="layer1"
     units="in" />
  <defs
     id="defs2">
    <marker
       style="overflow:visible"
       id="marker157502"
       refX="0"
       refY="0"
       orient="auto"
       inkscape:stockid="EmptyTriangleOutL"
       inkscape:isstock="true">
      <path
         transform="matrix(0.8,0,0,0.8,-4.8,0)"
         style="fill:none;fill-rule:evenodd;stroke:#000000;stroke-width:1pt"
         d="M 5.77,0 -2.88,5 V -5 Z"
         id="path157500" />
    </marker>
    <marker
       style="overflow:visible"
       id="marker140253"
       refX="0"
       refY="0"
       orient="auto"
       inkscape:stockid="EmptyTriangleOutL"
       inkscape:isstock="true">
      <path
         transform="matrix(0.8,0,0,0.8,-4.8,0)"
         style="fill:none;fill-rule:evenodd;stroke:#000000;stroke-width:1pt"
         d="M 5.77,0 -2.88,5 V -5 Z"
         id="path140251" />
    </marker>
    <marker
       style="overflow:visible"
       id="marker127627"
       refX="0"
       refY="0"
       orient="auto"
       inkscape:stockid="EmptyTriangleOutL"
       inkscape:isstock="true">
      <path
         transform="matrix(0.8,0,0,0.8,-4.8,0)"
         style="fill:none;fill-rule:evenodd;stroke:#000000;stroke-width:1pt"
         d="M 5.77,0 -2.88,5 V -5 Z"
         id="path127625" />
    </marker>
    <marker
       style="overflow:visible"
       id="EmptyTriangleOutL"
       refX="0"
       refY="0"
       orient="auto"
       inkscape:stockid="EmptyTriangleOutL"
       inkscape:isstock="true">
      <path
         transform="matrix(0.8,0,0,0.8,-4.8,0)"
         style="fill:none;fill-rule:evenodd;stroke:#000000;stroke-width:1pt"
         d="M 5.77,0 -2.88,5 V -5 Z"
         id="path115958" />
    </marker>
  </defs>
  <g
     inkscape:label="Layer 1"
     inkscape:groupmode="layer"
     id="layer1">
    <rect
       style="fill:#f9f9f9;stroke-width:0.264583"
       id="rect31"
       width="0.13229166"
       height="13.229166"
       x="92.736458"
       y="67.336456" />
    <rect
       style="fill:#f9f9f9;stroke-width:0.264583"
       id="rect33"
       width="63.63229"
       height="0"
       x="92.868752"
       y="80.565613" />
    <rect
       style="fill:#f9f9f9;stroke-width:0.264583"
       id="rect35"
       width="4.8947911"
       height="17.594788"
       x="87.841667"
       y="62.970833" />
    <rect
       style="fill:#f9f9f9;stroke-width:0.264583"
       id="rect37"
       width="13.758334"
       height="1.7197921"
       x="81.227081"
       y="71.172913" />
    <rect
       style="fill:#f9f9f9;stroke-width:0.264583;stroke:#000000;stroke-opacity:1"
       id="rect39"
       width="86.651039"
       height="36.777081"
       x="121.8625"
       y="76.70433"
       transform="rotate(0.33036289)" />
    <text
       xml:space="preserve"
       style="font-style:normal;font-weight:normal;font-size:10.5833px;line-height:1.25;font-family:sans-serif;fill:#000000;fill-opacity:1;stroke:none;stroke-width:0.264583"
       x="129.77812"
       y="79.375"
       id="text5359"><tspan
         sodipodi:role="line"
         id="tspan5357"
         style="stroke-width:0.264583"
         x="129.77812"
         y="79.375"></tspan></text>
    <text
       xml:space="preserve"
       style="font-style:normal;font-variant:normal;font-weight:normal;font-stretch:normal;font-size:5.64444px;line-height:1.25;font-family:sans-serif;-inkscape-font-specification:'sans-serif, Normal';font-variant-ligatures:normal;font-variant-caps:normal;font-variant-numeric:normal;font-variant-east-asian:normal;white-space:pre;shape-inside:url(#rect39);fill:#000000;fill-opacity:1;stroke:none;stroke-width:0.264583"
       x="123.03125"
       y="92.074997"
       id="text16307"
       transform="translate(31.749999,2.2489583)"><tspan
         x="121.41393"
         y="82.400257"
         id="tspan256126">REDIS</tspan></text>
    <text
       xml:space="preserve"
       style="font-style:normal;font-variant:normal;font-weight:normal;font-stretch:normal;font-size:5.64444px;line-height:1.25;font-family:sans-serif;-inkscape-font-specification:'sans-serif, Normal';font-variant-ligatures:normal;font-variant-caps:normal;font-variant-numeric:normal;font-variant-east-asian:normal;fill:#000000;fill-opacity:1;stroke:none;stroke-width:0.264583"
       x="129.51353"
       y="97.366669"
       id="text26829"><tspan
         sodipodi:role="line"
         id="tspan26827"
         style="font-style:normal;font-variant:normal;font-weight:normal;font-stretch:normal;font-size:5.64444px;font-family:sans-serif;-inkscape-font-specification:'sans-serif, Normal';font-variant-ligatures:normal;font-variant-caps:normal;font-variant-numeric:normal;font-variant-east-asian:normal;stroke-width:0.264583"
         x="129.51353"
         y="97.366669">Publications/Subscriptions</tspan></text>
    <path
       id="path30469"
       style="fill:#f9f9f9;stroke-width:0.264583;stroke:#000000;stroke-opacity:1"
       d="M 94.588547,40.084373 A 36.115623,18.785416 0 0 1 58.472919,58.869785 36.115623,18.785416 0 0 1 22.357296,40.084373 36.115623,18.785416 0 0 1 58.472919,21.298957 36.115623,18.785416 0 0 1 94.588547,40.084373 Z" />
    <ellipse
       style="fill:#f9f9f9;stroke-width:0.264583;stroke:#000000;stroke-opacity:1"
       id="path30475"
       cx="162.71875"
       cy="25.069271"
       rx="36.380207"
       ry="17.131771" />
    <ellipse
       style="fill:#f9f9f9;stroke:#000000;stroke-width:0.264583;stroke-opacity:1"
       id="path30477"
       cx="240.04321"
       cy="49.080208"
       rx="28.508854"
       ry="18.388542" />
    <rect
       style="fill:#f9f9f9;stroke-width:0.264583;stroke:#000000;stroke-opacity:1"
       id="rect30503"
       width="74.744789"
       height="22.225"
       x="126.33854"
       y="176.87396" />
    <text
       xml:space="preserve"
       style="font-style:normal;font-variant:normal;font-weight:normal;font-stretch:normal;font-size:5.64444px;line-height:1.25;font-family:sans-serif;-inkscape-font-specification:'sans-serif, Normal';font-variant-ligatures:normal;font-variant-caps:normal;font-variant-numeric:normal;font-variant-east-asian:normal;fill:#000000;fill-opacity:1;stroke:none;stroke-width:0.264583"
       x="146.97604"
       y="189.57394"
       id="text36799"><tspan
         sodipodi:role="line"
         id="tspan36797"
         style="font-style:normal;font-variant:normal;font-weight:normal;font-stretch:normal;font-size:5.64444px;font-family:sans-serif;-inkscape-font-specification:'sans-serif, Normal';font-variant-ligatures:normal;font-variant-caps:normal;font-variant-numeric:normal;font-variant-east-asian:normal;stroke-width:0.264583"
         x="146.97604"
         y="189.57394">REDIS Data</tspan></text>
    <g
       aria-label="Triggering"
       id="text51585"
       style="font-size:5.64444px;line-height:1.25;stroke-width:0.264583"
       transform="translate(-8.334375,-0.396875)">
      <path
         d="m 51.180336,35.308097 h 3.480922 v 0.468533 h -1.460719 v 3.646286 H 52.641056 V 35.77663 h -1.46072 z"
         id="path53251" />
      <path
         d="m 56.135758,36.810158 q -0.08544,-0.04961 -0.187413,-0.07166 -0.09922,-0.02481 -0.220486,-0.02481 -0.429948,0 -0.661458,0.28112 -0.228754,0.278363 -0.228754,0.802018 v 1.626083 h -0.509874 v -3.086803 h 0.509874 v 0.479557 q 0.159852,-0.281119 0.416167,-0.416167 0.256315,-0.137804 0.622873,-0.137804 0.05237,0 0.115755,0.0083 0.06339,0.0055 0.14056,0.01929 z"
         id="path53253" />
      <path
         d="m 56.66768,36.336113 h 0.507118 v 3.086803 H 56.66768 Z m 0,-1.201648 h 0.507118 V 35.77663 H 56.66768 Z"
         id="path53255" />
      <path
         d="m 60.267113,37.843686 q 0,-0.551215 -0.228754,-0.854383 -0.225998,-0.303168 -0.636653,-0.303168 -0.407899,0 -0.636653,0.303168 -0.225998,0.303168 -0.225998,0.854383 0,0.548459 0.225998,0.851627 0.228754,0.303168 0.636653,0.303168 0.410655,0 0.636653,-0.303168 0.228754,-0.303168 0.228754,-0.851627 z m 0.507118,1.196136 q 0,0.788237 -0.350021,1.171332 -0.350022,0.38585 -1.072113,0.38585 -0.26734,0 -0.504362,-0.04134 -0.237022,-0.03859 -0.460264,-0.121267 v -0.493338 q 0.223242,0.121268 0.440972,0.179145 0.217729,0.05788 0.443728,0.05788 0.498849,0 0.746896,-0.261827 0.248046,-0.259071 0.248046,-0.785481 V 38.87997 q -0.157096,0.272851 -0.402387,0.407899 -0.24529,0.135047 -0.587043,0.135047 -0.567752,0 -0.915017,-0.432703 -0.347265,-0.432704 -0.347265,-1.146527 0,-0.716579 0.347265,-1.149283 0.347265,-0.432704 0.915017,-0.432704 0.341753,0 0.587043,0.135048 0.245291,0.135047 0.402387,0.407899 v -0.468533 h 0.507118 z"
         id="path53257" />
      <path
         d="m 63.850011,37.843686 q 0,-0.551215 -0.228755,-0.854383 -0.225998,-0.303168 -0.636653,-0.303168 -0.407899,0 -0.636653,0.303168 -0.225998,0.303168 -0.225998,0.854383 0,0.548459 0.225998,0.851627 0.228754,0.303168 0.636653,0.303168 0.410655,0 0.636653,-0.303168 0.228755,-0.303168 0.228755,-0.851627 z m 0.507117,1.196136 q 0,0.788237 -0.350021,1.171332 -0.350022,0.38585 -1.072113,0.38585 -0.267339,0 -0.504362,-0.04134 -0.237022,-0.03859 -0.460264,-0.121267 v -0.493338 q 0.223242,0.121268 0.440972,0.179145 0.21773,0.05788 0.443728,0.05788 0.498849,0 0.746896,-0.261827 0.248047,-0.259071 0.248047,-0.785481 V 38.87997 q -0.157097,0.272851 -0.402387,0.407899 -0.245291,0.135047 -0.587044,0.135047 -0.567751,0 -0.915017,-0.432703 -0.347265,-0.432704 -0.347265,-1.146527 0,-0.716579 0.347265,-1.149283 0.347266,-0.432704 0.915017,-0.432704 0.341753,0 0.587044,0.135048 0.24529,0.135047 0.402387,0.407899 v -0.468533 h 0.507117 z"
         id="path53259" />
      <path
         d="m 68.041999,37.752735 v 0.248047 H 65.71036 q 0.03307,0.523654 0.314193,0.799262 0.283875,0.272851 0.788237,0.272851 0.292144,0 0.564995,-0.07166 0.275608,-0.07166 0.545703,-0.214974 v 0.479557 q -0.272851,0.115755 -0.559483,0.176389 -0.286632,0.06063 -0.581532,0.06063 -0.738628,0 -1.171331,-0.429948 -0.429948,-0.429948 -0.429948,-1.163063 0,-0.757921 0.407899,-1.201649 0.410655,-0.446484 1.105186,-0.446484 0.622873,0 0.983918,0.402387 0.363802,0.399631 0.363802,1.088649 z m -0.507117,-0.148828 q -0.0055,-0.416167 -0.234267,-0.664214 -0.225998,-0.248046 -0.600824,-0.248046 -0.424435,0 -0.68075,0.239778 -0.253559,0.239779 -0.292144,0.675238 z"
         id="path53261" />
      <path
         d="m 70.663026,36.810158 q -0.08544,-0.04961 -0.187413,-0.07166 -0.09922,-0.02481 -0.220486,-0.02481 -0.429948,0 -0.661458,0.28112 -0.228754,0.278363 -0.228754,0.802018 v 1.626083 h -0.509874 v -3.086803 h 0.509874 v 0.479557 q 0.159852,-0.281119 0.416167,-0.416167 0.256315,-0.137804 0.622873,-0.137804 0.05237,0 0.115755,0.0083 0.06339,0.0055 0.14056,0.01929 z"
         id="path53263" />
      <path
         d="m 71.194947,36.336113 h 0.507118 v 3.086803 h -0.507118 z m 0,-1.201648 h 0.507118 v 0.642165 h -0.507118 z"
         id="path53265" />
      <path
         d="m 75.329059,37.55981 v 1.863106 h -0.507117 v -1.846569 q 0,-0.438216 -0.170877,-0.655946 -0.170877,-0.21773 -0.51263,-0.21773 -0.410655,0 -0.647677,0.261827 -0.237023,0.261827 -0.237023,0.713823 v 1.744595 h -0.509873 v -3.086803 h 0.509873 v 0.479557 q 0.181901,-0.278363 0.427192,-0.416167 0.248046,-0.137804 0.570507,-0.137804 0.531922,0 0.804774,0.330729 0.272851,0.327973 0.272851,0.967382 z"
         id="path53267" />
      <path
         d="m 78.371766,37.843686 q 0,-0.551215 -0.228754,-0.854383 -0.225999,-0.303168 -0.636654,-0.303168 -0.407899,0 -0.636653,0.303168 -0.225998,0.303168 -0.225998,0.854383 0,0.548459 0.225998,0.851627 0.228754,0.303168 0.636653,0.303168 0.410655,0 0.636654,-0.303168 0.228754,-0.303168 0.228754,-0.851627 z m 0.507117,1.196136 q 0,0.788237 -0.350021,1.171332 -0.350021,0.38585 -1.072113,0.38585 -0.267339,0 -0.504362,-0.04134 -0.237022,-0.03859 -0.460264,-0.121267 v -0.493338 q 0.223242,0.121268 0.440972,0.179145 0.21773,0.05788 0.443728,0.05788 0.498849,0 0.746896,-0.261827 0.248047,-0.259071 0.248047,-0.785481 V 38.87997 q -0.157096,0.272851 -0.402387,0.407899 -0.245291,0.135047 -0.587044,0.135047 -0.567751,0 -0.915017,-0.432703 -0.347265,-0.432704 -0.347265,-1.146527 0,-0.716579 0.347265,-1.149283 0.347266,-0.432704 0.915017,-0.432704 0.341753,0 0.587044,0.135048 0.245291,0.135047 0.402387,0.407899 v -0.468533 h 0.507117 z"
         id="path53269" />
    </g>
    <text
       xml:space="preserve"
       style="font-size:5.64444px;line-height:1.25;font-family:sans-serif;stroke-width:0.264583"
       x="138.11249"
       y="24.209373"
       id="text62771"><tspan
         sodipodi:role="line"
         id="tspan62769"
         style="stroke-width:0.264583"
         x="138.11249"
         y="24.209373">Trigger Response</tspan></text>
    <text
       xml:space="preserve"
       style="font-size:5.64444px;line-height:1.25;font-family:sans-serif;stroke-width:0.264583"
       x="224.36665"
       y="50.138542"
       id="text68949"><tspan
         sodipodi:role="line"
         id="tspan68947"
         style="stroke-width:0.264583"
         x="224.36665"
         y="50.138542">Notification</tspan></text>
    <ellipse
       style="fill:#f9f9f9;stroke-width:0.264583;stroke:#000000;stroke-opacity:1"
       id="path70043"
       cx="75.207809"
       cy="146.04999"
       rx="31.683851"
       ry="20.505211" />
    <text
       xml:space="preserve"
       style="font-size:4.93889px;line-height:1.25;font-family:sans-serif;stroke-width:0.264583"
       x="59.53125"
       y="135.33438"
       id="text75099"><tspan
         sodipodi:role="line"
         id="tspan75097"
         style="font-size:4.93889px;stroke-width:0.264583"
         x="59.53125"
         y="135.33438">EOD Monitor</tspan></text>
    <ellipse
       style="fill:#f9f9f9;stroke-width:0.264583;stroke:#000000;stroke-opacity:1"
       id="path99539"
       cx="168.34114"
       cy="143.99948"
       rx="27.31823"
       ry="11.575521" />
    <text
       xml:space="preserve"
       style="font-size:4.23333px;line-height:1.25;font-family:sans-serif;stroke-width:0.264583"
       x="147.6375"
       y="145.65312"
       id="text107961"><tspan
         sodipodi:role="line"
         id="tspan107959"
         style="font-size:4.23333px;stroke-width:0.264583"
         x="147.6375"
         y="145.65312">EOD Data Retrieval</tspan></text>
    <path
       style="fill:none;stroke:#000000;stroke-width:0.264583;stroke-linecap:butt;stroke-linejoin:miter;stroke-miterlimit:4;stroke-dasharray:2.11666, 2.11666;stroke-dashoffset:0;stroke-opacity:1;marker-end:url(#EmptyTriangleOutL)"
       d="M 126.07396,193.93958 H 29.36875 V 50.535416"
       id="path114901" />
    <text
       xml:space="preserve"
       style="font-size:2.82223px;line-height:1.25;font-family:sans-serif;stroke-width:0.264583"
       x="30.956249"
       y="72.098961"
       id="text123878"><tspan
         sodipodi:role="line"
         id="tspan123876"
         style="stroke-width:0.264583"
         x="30.956249"
         y="72.098961">EOD symbols ready</tspan></text>
    <path
       style="fill:none;stroke:#000000;stroke-width:0.264583;stroke-linecap:butt;stroke-linejoin:miter;stroke-miterlimit:4;stroke-dasharray:2.11666, 2.11666;stroke-dashoffset:0;stroke-opacity:1;marker-end:url(#marker127627)"
       d="M 76.861457,125.94167 121.17917,110.33125"
       id="path127543" />
    <text
       xml:space="preserve"
       style="font-size:2.82223px;line-height:1.25;font-family:sans-serif;stroke-width:0.264583"
       x="101.20312"
       y="121.97292"
       id="text132807"><tspan
         sodipodi:role="line"
         style="stroke-width:0.264583"
         x="101.20312"
         y="121.97292"
         id="tspan133263" /></text>
    <text
       xml:space="preserve"
       style="font-size:2.82223px;line-height:1.25;font-family:sans-serif;stroke-width:0.264583"
       x="97.366669"
       y="122.89896"
       id="text138747"><tspan
         sodipodi:role="line"
         style="stroke-width:0.264583"
         x="97.366669"
         y="122.89896"
         id="tspan138749">  eod</tspan><tspan
         sodipodi:role="line"
         style="stroke-width:0.264583"
         x="97.366669"
         y="126.42674"
         id="tspan138753">check -&gt; symkey</tspan></text>
    <path
       style="fill:none;stroke:#000000;stroke-width:0.264583;stroke-linecap:butt;stroke-linejoin:miter;stroke-miterlimit:4;stroke-dasharray:2.11666, 2.11666;stroke-dashoffset:0;stroke-opacity:1;marker-end:url(#marker140253)"
       d="m 97.234374,160.20521 29.104166,16.66875"
       id="path140169" />
    <text
       xml:space="preserve"
       style="font-size:2.82223px;line-height:1.25;font-family:sans-serif;stroke-width:0.264583"
       x="111.65417"
       y="164.30624"
       id="text147665"><tspan
         sodipodi:role="line"
         id="tspan147663"
         style="stroke-width:0.264583"
         x="111.65417"
         y="164.30624">eod check</tspan><tspan
         sodipodi:role="line"
         style="stroke-width:0.264583"
         x="111.65417"
         y="167.83403"
         id="tspan147667">symbols</tspan></text>
    <path
       style="fill:none;stroke:#000000;stroke-width:0.264583;stroke-linecap:butt;stroke-linejoin:miter;stroke-miterlimit:4;stroke-dasharray:2.11666, 2.11666;stroke-dashoffset:0;stroke-opacity:1;marker-end:url(#marker157502)"
       d="M 121.04687,82.682291 74.480207,56.753124"
       id="path157418" />
    <text
       xml:space="preserve"
       style="font-size:2.82223px;line-height:1.25;font-family:sans-serif;stroke-width:0.264583"
       x="77.522919"
       y="68.659378"
       id="text159118"><tspan
         sodipodi:role="line"
         style="stroke-width:0.264583"
         x="77.522919"
         y="68.659378"
         id="tspan159122">eod data</tspan><tspan
         sodipodi:role="line"
         style="stroke-width:0.264583"
         x="77.522919"
         y="72.187164"
         id="tspan159128">  ready</tspan></text>
    <path
       style="fill:none;stroke:#000000;stroke-width:0.264583;stroke-linecap:butt;stroke-linejoin:miter;stroke-miterlimit:4;stroke-dasharray:2.11666, 2.11666;stroke-dashoffset:0;stroke-opacity:1;marker-end:url(#marker157502)"
       d="M 88.767707,49.477083 137.84791,77.655207"
       id="path159573" />
    <text
       xml:space="preserve"
       style="font-size:2.82223px;line-height:1.25;font-family:sans-serif;stroke-width:0.264583"
       x="104.90729"
       y="54.504166"
       id="text162187"><tspan
         sodipodi:role="line"
         id="tspan162185"
         style="stroke-width:0.264583"
         x="104.90729"
         y="54.504166">completion</tspan><tspan
         sodipodi:role="line"
         style="stroke-width:0.264583"
         x="104.90729"
         y="58.031952"
         id="tspan162189"> or failure</tspan></text>
    <path
       style="fill:none;stroke:#000000;stroke-width:0.264583;stroke-linecap:butt;stroke-linejoin:miter;stroke-miterlimit:4;stroke-dasharray:2.11666, 2.11666;stroke-dashoffset:0;stroke-opacity:1;marker-end:url(#marker157502)"
       d="M 149.48958,77.522916 V 40.481249"
       id="path163360" />
    <text
       xml:space="preserve"
       style="font-size:2.82223px;line-height:1.25;font-family:sans-serif;stroke-width:0.264583"
       x="151.87083"
       y="47.360416"
       id="text165644"><tspan
         sodipodi:role="line"
         id="tspan165642"
         style="stroke-width:0.264583"
         x="151.87083"
         y="47.360416">&quot;triggering</tspan><tspan
         sodipodi:role="line"
         style="stroke-width:0.264583"
         x="151.87083"
         y="50.888203"
         id="tspan165646">completed&quot;</tspan><tspan
         sodipodi:role="line"
         style="stroke-width:0.264583"
         x="151.87083"
         y="54.415993"
         id="tspan165648">notification</tspan></text>
    <path
       style="fill:none;stroke:#000000;stroke-width:0.264583;stroke-linecap:butt;stroke-linejoin:miter;stroke-miterlimit:4;stroke-dasharray:2.11666, 2.11666;stroke-dashoffset:0;stroke-opacity:1;marker-end:url(#EmptyTriangleOutL)"
       d="M 182.5625,39.555208 V 78.316666"
       id="path172811" />
    <text
       xml:space="preserve"
       style="font-size:2.82223px;line-height:1.25;font-family:sans-serif;stroke-width:0.264583"
       x="185.60521"
       y="68.923958"
       id="text177381"><tspan
         sodipodi:role="line"
         id="tspan177379"
         style="stroke-width:0.264583"
         x="185.60521"
         y="68.923958">completion</tspan><tspan
         sodipodi:role="line"
         style="stroke-width:0.264583"
         x="185.60521"
         y="72.451744"
         id="tspan177383">or failure</tspan></text>
    <path
       style="fill:none;stroke:#000000;stroke-width:0.264583;stroke-linecap:butt;stroke-linejoin:miter;stroke-miterlimit:4;stroke-dasharray:2.11666, 2.11666;stroke-dashoffset:0;stroke-opacity:1;marker-end:url(#marker157502)"
       d="M 207.43333,82.814582 H 247.65 V 66.807291"
       id="path181024" />
    <text
       xml:space="preserve"
       style="font-size:2.82223px;line-height:1.25;font-family:sans-serif;stroke-width:0.264583"
       x="211.0052"
       y="86.651039"
       id="text188246"><tspan
         sodipodi:role="line"
         id="tspan188244"
         style="stroke-width:0.264583"
         x="211.0052"
         y="86.651039">&quot;notifications pending&quot;</tspan><tspan
         sodipodi:role="line"
         style="stroke-width:0.264583"
         x="211.0052"
         y="90.178825"
         id="tspan188248">  notification</tspan></text>
    <path
       style="fill:none;stroke:#000000;stroke-width:0.264583;stroke-linecap:butt;stroke-linejoin:miter;stroke-miterlimit:4;stroke-dasharray:2.11666, 2.11666;stroke-dashoffset:0;stroke-opacity:1;marker-end:url(#marker157502)"
       d="m 151.87083,113.90312 v 20.76979"
       id="path198261" />
    <path
       style="fill:none;stroke:#000000;stroke-width:0.264583;stroke-linecap:butt;stroke-linejoin:miter;stroke-miterlimit:4;stroke-dasharray:2.11666, 2.11666;stroke-dashoffset:0;stroke-opacity:1;marker-end:url(#marker157502)"
       d="M 178.32916,133.08542 V 114.16771"
       id="path198376" />
    <path
       style="fill:none;stroke:#000000;stroke-width:0.264583;stroke-linecap:butt;stroke-linejoin:miter;stroke-miterlimit:4;stroke-dasharray:2.11666, 2.11666;stroke-dashoffset:0;stroke-opacity:1;marker-end:url(#marker157502)"
       d="M 155.83958,176.74166 V 154.25208"
       id="path198491" />
    <path
       style="fill:none;stroke:#000000;stroke-width:0.264583;stroke-linecap:butt;stroke-linejoin:miter;stroke-miterlimit:4;stroke-dasharray:2.11666, 2.11666;stroke-dashoffset:0;stroke-opacity:1;marker-end:url(#marker157502)"
       d="m 184.01771,153.45833 v 24.07708"
       id="path198606" />
    <text
       xml:space="preserve"
       style="font-size:2.46944px;line-height:1.25;font-family:sans-serif;stroke-width:0.264583"
       x="153.45833"
       y="126.20625"
       id="text203992"><tspan
         sodipodi:role="line"
         style="font-size:2.46944px;stroke-width:0.264583"
         x="153.45833"
         y="126.20625"
         id="tspan203994">eod</tspan><tspan
         sodipodi:role="line"
         style="font-size:2.46944px;stroke-width:0.264583"
         x="153.45833"
         y="129.29306"
         id="tspan205592">check -&gt; symkey</tspan></text>
    <text
       xml:space="preserve"
       style="font-size:2.82223px;line-height:1.25;font-family:sans-serif;stroke-width:0.264583"
       x="180.71042"
       y="120.64999"
       id="text217608"><tspan
         sodipodi:role="line"
         id="tspan217606"
         style="stroke-width:0.264583"
         x="180.71042"
         y="120.64999">eod</tspan><tspan
         sodipodi:role="line"
         style="stroke-width:0.264583"
         x="180.71042"
         y="124.17777"
         id="tspan217610">data ready</tspan></text>
    <text
       xml:space="preserve"
       style="font-size:2.82223px;line-height:1.25;font-family:sans-serif;stroke-width:0.264583"
       x="157.29478"
       y="160.46979"
       id="text228796"><tspan
         sodipodi:role="line"
         style="stroke-width:0.264583"
         x="157.29478"
         y="160.46979"
         id="tspan228798">eod check</tspan><tspan
         sodipodi:role="line"
         style="stroke-width:0.264583"
         x="157.29478"
         y="163.99757"
         id="tspan228802">symbols</tspan></text>
    <text
       xml:space="preserve"
       style="font-size:2.82223px;line-height:1.25;font-family:sans-serif;stroke-width:0.264583"
       x="185.7375"
       y="167.61354"
       id="text233426"><tspan
         sodipodi:role="line"
         id="tspan233424"
         style="stroke-width:0.264583"
         x="185.7375"
         y="167.61354">eod</tspan><tspan
         sodipodi:role="line"
         style="stroke-width:0.264583"
         x="185.7375"
         y="171.14133"
         id="tspan233428">symbols</tspan><tspan
         sodipodi:role="line"
         style="stroke-width:0.264583"
         x="185.7375"
         y="174.66911"
         id="tspan233430">ready</tspan></text>
    <text
       xml:space="preserve"
       style="font-size:2.82223px;line-height:1.25;font-family:sans-serif;stroke-width:0.264583"
       x="46.963543"
       y="143.13959"
       id="text255194"><tspan
         sodipodi:role="line"
         id="tspan255192"
         style="stroke-width:0.264583"
         x="46.963543"
         y="143.13959">(Locate closed exchanges and get</tspan><tspan
         sodipodi:role="line"
         style="stroke-width:0.264583"
         x="46.963543"
         y="146.66737"
         id="tspan255196"> list of affected tradables)</tspan></text>
  </g>
</svg>
